<?xml version="1.0" encoding="UTF-8"?>
<svg id="_Слой_1" data-name="Слой 1" xmlns="http://www.w3.org/2000/svg" viewBox="0 0 53.85 40.85">
  <defs>
    <style>
      .cls-1 {
        fill: #5ab215;
      }

      .cls-2 {
        fill: none;
      }

      .cls-3 {
        fill: #ff0;
      }
    </style>
  </defs>
  <g>
    <polygon points="35.49 24.59 29.27 18.47 21.43 18.47 31.57 28.51 27.07 33 8.13 14.16 8.13 14.16 .29 14.16 .29 14.16 27.07 40.85 49.55 18.47 41.71 18.47 35.49 24.59"/>
    <polygon points="13.78 11.2 13.78 11.2 27.07 4.5 40.37 11.2 36.16 11.2 22.86 11.2 17.22 14.16 46.01 14.16 46.01 14.16 53.85 14.16 53.85 14.16 27.07 .29 .29 14.16 8.13 14.16 13.78 11.2"/>
    <line x1="14.45" y1="10.91" x2="8.13" y2="14.16"/>
  </g>
  <g>
    <polygon class="cls-3" points="35.2 24.3 28.98 18.17 21.14 18.17 31.28 28.22 26.78 32.71 7.84 13.87 7.84 13.87 0 13.87 0 13.87 26.78 40.56 49.26 18.17 41.42 18.17 35.2 24.3"/>
    <polygon class="cls-1" points="13.49 10.9 13.49 10.9 26.78 4.21 40.08 10.9 35.87 10.9 22.57 10.9 16.93 13.87 45.72 13.87 45.72 13.87 53.57 13.87 53.57 13.87 26.78 0 0 13.87 7.84 13.87 13.49 10.9"/>
    <line class="cls-2" x1="14.16" y1="10.62" x2="7.84" y2="13.87"/>
  </g>
</svg>