<svg width="370" height="90" viewBox="0 0 370 90" fill="none" xmlns="http://www.w3.org/2000/svg">
<path d="M107.69 50.57L114.27 52.56C113.84 54.4 113.14 55.92 112.19 57.18C111.24 58.4 110.08 59.35 108.67 59.96C107.26 60.6 105.49 60.91 103.32 60.91C100.69 60.91 98.52 60.51 96.87 59.75C95.22 58.99 93.72 57.67 92.5 55.74C91.31 53.81 90.7 51.34 90.7 48.34C90.7 44.33 91.77 41.24 93.91 39.1C96.05 36.96 99.05 35.86 102.96 35.86C106.02 35.86 108.4 36.47 110.15 37.73C111.89 38.95 113.21 40.85 114.03 43.42L107.42 44.89C107.18 44.16 106.93 43.61 106.69 43.27C106.26 42.69 105.77 42.26 105.16 41.95C104.55 41.64 103.88 41.49 103.14 41.49C101.43 41.49 100.14 42.16 99.22 43.54C98.55 44.55 98.18 46.14 98.18 48.31C98.18 51 98.58 52.84 99.4 53.85C100.22 54.86 101.36 55.35 102.83 55.35C104.27 55.35 105.34 54.95 106.07 54.16C106.83 53.3 107.38 52.1 107.69 50.57Z" fill="#515151"/>
<path d="M116.19 36.26H138.95V42.26H131.3V60.52H123.81V42.25H116.16V36.25H116.19V36.26Z" fill="#515151"/>
<path d="M142.32 36.26H154.77C157.49 36.26 159.51 36.9 160.86 38.19C162.21 39.47 162.88 41.31 162.88 43.7C162.88 46.15 162.15 48.07 160.68 49.45C159.21 50.83 156.95 51.53 153.95 51.53H149.85V60.52H142.33V36.26H142.32ZM149.84 46.6H151.68C153.12 46.6 154.13 46.36 154.71 45.84C155.29 45.35 155.6 44.71 155.6 43.91C155.6 43.15 155.36 42.5 154.84 41.98C154.32 41.46 153.37 41.18 151.96 41.18H149.82V46.59H149.84V46.6Z" fill="#515151"/>
<path d="M187.74 39.13C185.57 36.96 182.45 35.89 178.41 35.89C174.46 35.89 171.41 36.99 169.2 39.19C166.99 41.39 165.9 44.48 165.9 48.43C165.9 51.27 166.45 53.63 167.58 55.5C168.68 57.4 170.15 58.77 171.92 59.63C173.72 60.49 175.99 60.95 178.71 60.95C181.4 60.95 183.63 60.46 185.44 59.45C187.24 58.44 188.62 57.03 189.57 55.23C190.52 53.43 191.01 51.1 191.01 48.26C191.04 44.33 189.94 41.31 187.74 39.13ZM179.11 55.32C179.08 55.32 179.02 55.32 178.99 55.32C178.84 55.32 178.65 55.35 178.5 55.35C174.68 55.35 171.62 52.26 171.62 48.47C171.62 44.89 174.34 41.92 177.86 41.62C177.92 41.62 177.95 41.62 178.01 41.62C178.13 41.62 178.25 41.62 178.38 41.59C178.41 41.59 178.44 41.59 178.44 41.59C178.44 41.59 178.44 41.59 178.47 41.59H178.5C182.32 41.59 185.38 44.68 185.38 48.47C185.35 52.04 182.63 54.98 179.11 55.32Z" fill="#515151"/>
<path d="M178.99 55.32C178.84 55.32 178.65 55.35 178.5 55.35C178.66 55.35 178.81 55.35 178.99 55.32Z" fill="#515151"/>
<path d="M177.98 41.58C178.1 41.58 178.22 41.55 178.35 41.55C178.23 41.55 178.11 41.58 177.98 41.58Z" fill="#515151"/>
<path d="M218.24 36.26V60.52H211.2V47.21L202.12 60.52H195.05V36.26H202.12V49.66L211.24 36.26C211.23 36.26 218.24 36.26 218.24 36.26ZM212.76 30.29C212.52 31.67 211.87 32.8 210.74 33.65C209.64 34.51 208.32 34.93 206.79 34.93C205.26 34.93 203.95 34.5 202.84 33.65C201.74 32.79 201.07 31.66 200.85 30.29H203.73C204.19 31.67 205.2 32.37 206.73 32.37C208.38 32.37 209.42 31.67 209.88 30.29C209.89 30.29 212.76 30.29 212.76 30.29Z" fill="#515151"/>
<path d="M220.53 36.41H228.64L231.97 46.35L235.27 36.41H242.86L234.94 55.07C234.3 56.57 233.72 57.7 233.26 58.43C232.77 59.16 232.07 59.78 231.12 60.27C230.17 60.76 228.86 60.97 227.2 60.97C226.31 60.97 224.81 60.85 222.67 60.6V55.58C223.92 55.7 224.84 55.76 225.42 55.76C227.13 55.76 228.2 55.12 228.57 53.83L220.53 36.41Z" fill="#515151"/>
<path d="M294.53 57H286.06L284.9 60.98H277.28L286.36 36.82H294.5L303.58 60.98H295.78L294.53 57ZM292.97 51.77L290.31 43.08L287.68 51.77H292.97Z" fill="#515151"/>
<path d="M326.89 60.97H319.43V52.01C317.14 53.26 314.96 53.91 312.91 53.91C310.46 53.91 308.41 53.18 306.82 51.74C305.23 50.27 304.43 48.28 304.43 45.74V36.84H311.89V44.24C311.89 45.4 312.17 46.32 312.72 46.96C313.27 47.6 314.1 47.91 315.14 47.91C317.1 47.91 318.5 47.33 319.39 46.17V36.84H326.85V60.97H326.89Z" fill="#515151"/>
<path d="M347.9 57H339.43L338.27 60.98H330.65L339.73 36.82H347.87L356.95 60.98H349.15L347.9 57ZM346.34 51.77L343.68 43.08L341.05 51.77H346.34Z" fill="#515151"/>
<path d="M244.79 47.03C244.88 47.15 244.97 47.24 245.07 47.34C245.25 47.52 245.47 47.55 245.68 47.4C245.8 47.31 245.92 47.19 246.05 47.06C250.24 42.87 254.4 38.68 258.59 34.49C258.65 34.43 258.71 34.37 258.77 34.31C258.83 34.37 258.86 34.4 258.92 34.46C260.3 35.84 261.67 37.21 263.05 38.62C265.89 41.46 268.71 44.31 271.55 47.15C272.04 47.64 272.31 47.61 272.71 47.03C273.02 46.6 273.29 46.2 273.6 45.78C273.66 45.69 273.72 45.6 273.78 45.5C273.96 45.13 273.96 44.89 273.69 44.58C273.6 44.46 273.48 44.34 273.35 44.21C272.22 43.08 271.12 41.98 269.99 40.88C269.71 40.6 269.56 40.27 269.56 39.84C269.56 39.56 269.56 39.26 269.56 38.98C269.56 36.47 269.56 33.96 269.56 31.49C269.56 30.73 269.38 30.54 268.7 30.54C267.9 30.54 267.11 30.54 266.31 30.54C266.22 30.54 266.13 30.54 266.03 30.54C265.79 30.57 265.72 30.66 265.72 30.94C265.72 31.18 265.75 31.43 265.75 31.67C265.75 33.2 265.75 34.73 265.75 36.26C265.75 36.32 265.75 36.41 265.75 36.54C265.66 36.45 265.6 36.39 265.54 36.33C263.86 34.68 262.21 33.03 260.52 31.37C260.28 31.13 260 30.88 259.72 30.73C259.08 30.33 258.44 30.33 257.79 30.73C257.51 30.91 257.24 31.13 256.99 31.37C255.03 33.33 253.07 35.29 251.12 37.24C248.76 39.63 246.38 41.98 244.02 44.37C243.5 44.89 243.47 45.2 243.9 45.81C244.21 46.2 244.51 46.63 244.79 47.03Z" fill="#515151"/>
<path d="M273.33 56.42H269.6C269.6 53.61 269.6 50.82 269.6 48.01C269.6 47.55 269.45 47.18 269.14 46.88C265.74 43.52 262.32 40.15 258.92 36.76C258.86 36.7 258.83 36.67 258.77 36.61C258.62 36.76 258.46 36.89 258.31 37.04C256.54 38.81 254.76 40.56 252.99 42.33C251.43 43.89 249.84 45.45 248.28 47.01C248.1 47.19 247.97 47.44 247.97 47.74C247.97 50.65 247.97 53.52 247.97 56.43H244.21C243.9 56.43 243.63 56.67 243.63 57.01V60.37C243.63 60.68 243.87 60.95 244.21 60.95H273.33C273.64 60.95 273.91 60.71 273.91 60.37V57C273.91 56.69 273.63 56.42 273.33 56.42ZM255.71 47.64C256.72 47.64 258.74 47.64 258.74 47.64C258.74 47.64 260.79 47.64 261.8 47.64C261.8 47.76 261.8 51.31 261.8 51.4C261.8 53.08 261.8 54.76 261.8 56.42H255.68C255.71 53.39 255.71 49.66 255.71 47.64Z" fill="#515151"/>
<path d="M106.77 49.66L113.35 51.65C112.92 53.49 112.22 55.01 111.27 56.27C110.32 57.49 109.16 58.44 107.75 59.05C106.34 59.69 104.57 60 102.4 60C99.77 60 97.6 59.6 95.95 58.84C94.3 58.08 92.8 56.76 91.58 54.83C90.39 52.9 89.78 50.43 89.78 47.43C89.78 43.42 90.85 40.33 92.99 38.19C95.13 36.05 98.13 34.95 102.04 34.95C105.1 34.95 107.48 35.56 109.23 36.82C110.97 38.04 112.29 39.94 113.11 42.51L106.5 43.98C106.26 43.25 106.01 42.7 105.77 42.36C105.34 41.78 104.85 41.35 104.24 41.04C103.63 40.73 102.96 40.58 102.22 40.58C100.51 40.58 99.22 41.25 98.3 42.63C97.63 43.64 97.26 45.23 97.26 47.4C97.26 50.09 97.66 51.93 98.48 52.94C99.31 53.95 100.44 54.44 101.91 54.44C103.35 54.44 104.42 54.04 105.15 53.25C105.92 52.38 106.47 51.19 106.77 49.66Z" fill="white"/>
<path d="M115.28 35.34H138.04V41.34H130.39V59.6H122.9V41.34H115.25V35.34H115.28Z" fill="white"/>
<path d="M141.4 35.34H153.85C156.57 35.34 158.59 35.98 159.94 37.27C161.29 38.55 161.96 40.39 161.96 42.78C161.96 45.23 161.23 47.15 159.76 48.53C158.29 49.91 156.03 50.61 153.03 50.61H148.93V59.6H141.41V35.34H141.4ZM148.92 45.68H150.76C152.2 45.68 153.21 45.44 153.79 44.92C154.37 44.43 154.68 43.79 154.68 42.99C154.68 42.23 154.44 41.58 153.92 41.06C153.4 40.54 152.45 40.26 151.04 40.26H148.9V45.67H148.92V45.68Z" fill="white"/>
<path d="M186.82 38.22C184.65 36.05 181.53 34.98 177.49 34.98C173.54 34.98 170.49 36.08 168.28 38.28C166.07 40.48 164.98 43.57 164.98 47.52C164.98 50.36 165.53 52.72 166.66 54.59C167.76 56.49 169.23 57.86 171 58.72C172.8 59.58 175.07 60.04 177.79 60.04C180.48 60.04 182.71 59.55 184.52 58.54C186.32 57.53 187.7 56.12 188.65 54.32C189.6 52.52 190.09 50.19 190.09 47.35C190.13 43.42 189.03 40.39 186.82 38.22ZM178.2 54.4C178.17 54.4 178.11 54.4 178.08 54.4C177.93 54.4 177.74 54.43 177.59 54.43C173.77 54.43 170.71 51.34 170.71 47.55C170.71 43.97 173.43 41 176.95 40.7C177.01 40.7 177.04 40.7 177.1 40.7C177.22 40.7 177.34 40.7 177.47 40.67C177.5 40.67 177.53 40.67 177.53 40.67C177.53 40.67 177.53 40.67 177.56 40.67H177.59C181.41 40.67 184.47 43.76 184.47 47.55C184.44 51.12 181.71 54.06 178.2 54.4Z" fill="white"/>
<path d="M178.07 54.4C177.92 54.4 177.73 54.43 177.58 54.43C177.74 54.43 177.89 54.43 178.07 54.4Z" fill="white"/>
<path d="M177.55 40.57C173.73 40.57 170.61 43.66 170.61 47.51C170.61 51.33 173.7 54.45 177.55 54.45C181.4 54.45 184.49 51.36 184.49 47.51C184.47 43.66 181.38 40.57 177.55 40.57ZM177.55 54.24C173.82 54.24 170.79 51.21 170.79 47.48C170.79 43.75 173.82 40.72 177.55 40.72C181.28 40.72 184.31 43.75 184.31 47.48C184.31 51.22 181.29 54.24 177.55 54.24Z" fill="#1E1E1C"/>
<path d="M217.32 35.34V59.6H210.28V46.29L201.2 59.6H194.13V35.34H201.2V48.74L210.32 35.34H217.32ZM211.84 29.38C211.6 30.76 210.95 31.89 209.82 32.74C208.72 33.6 207.4 34.02 205.87 34.02C204.34 34.02 203.03 33.59 201.92 32.74C200.81 31.89 200.15 30.75 199.93 29.38H202.81C203.27 30.76 204.28 31.46 205.81 31.46C207.46 31.46 208.5 30.76 208.96 29.38H211.84Z" fill="white"/>
<path d="M219.61 35.49H227.72L231.05 45.43L234.35 35.49H241.94L234.02 54.15C233.38 55.65 232.8 56.78 232.34 57.51C231.85 58.24 231.15 58.86 230.2 59.35C229.25 59.84 227.94 60.05 226.28 60.05C225.39 60.05 223.89 59.93 221.75 59.68V54.66C223 54.78 223.92 54.84 224.5 54.84C226.21 54.84 227.28 54.2 227.65 52.91L219.61 35.49Z" fill="white"/>
<path d="M293.61 56.08H285.14L283.98 60.06H276.36L285.44 35.9H293.58L302.66 60.06H294.86L293.61 56.08ZM292.05 50.85L289.39 42.16L286.76 50.85H292.05Z" fill="white"/>
<path d="M325.97 60.06H318.51V51.1C316.22 52.35 314.04 53 311.99 53C309.54 53 307.49 52.27 305.9 50.83C304.31 49.36 303.51 47.37 303.51 44.83V35.93H310.97V43.33C310.97 44.49 311.25 45.41 311.8 46.05C312.35 46.69 313.18 47 314.22 47C316.18 47 317.58 46.42 318.47 45.26V35.93H325.93V60.06H325.97Z" fill="white"/>
<path d="M346.98 56.08H338.51L337.35 60.06H329.73L338.81 35.9H346.95L356.03 60.06H348.23L346.98 56.08ZM345.42 50.85L342.76 42.16L340.13 50.85H345.42Z" fill="white"/>
<path d="M243.87 46.11C243.96 46.23 244.05 46.32 244.15 46.42C244.33 46.6 244.55 46.63 244.76 46.48C244.88 46.39 245 46.27 245.13 46.14C249.32 41.95 253.48 37.76 257.67 33.57C257.73 33.51 257.79 33.45 257.85 33.39C257.91 33.45 257.94 33.48 258 33.54C259.38 34.92 260.75 36.29 262.13 37.7C264.97 40.54 267.79 43.39 270.63 46.23C271.12 46.72 271.39 46.69 271.79 46.11C272.1 45.68 272.37 45.28 272.68 44.86C272.74 44.77 272.8 44.68 272.86 44.58C273.04 44.21 273.04 43.97 272.77 43.66C272.68 43.54 272.56 43.42 272.43 43.29C271.3 42.16 270.2 41.06 269.07 39.96C268.79 39.68 268.64 39.35 268.64 38.92C268.64 38.64 268.64 38.34 268.64 38.06C268.64 35.55 268.64 33.04 268.64 30.57C268.64 29.81 268.46 29.62 267.78 29.62C266.98 29.62 266.19 29.62 265.39 29.62C265.3 29.62 265.21 29.62 265.11 29.62C264.87 29.65 264.8 29.74 264.8 30.02C264.8 30.26 264.83 30.51 264.83 30.75C264.83 32.28 264.83 33.81 264.83 35.34C264.83 35.4 264.83 35.49 264.83 35.62C264.74 35.53 264.68 35.47 264.62 35.41C262.94 33.76 261.29 32.11 259.6 30.45C259.36 30.21 259.08 29.96 258.8 29.81C258.16 29.41 257.52 29.41 256.87 29.81C256.59 29.99 256.32 30.21 256.07 30.45C254.11 32.41 252.15 34.37 250.2 36.32C247.84 38.71 245.46 41.06 243.1 43.45C242.58 43.97 242.55 44.28 242.98 44.89C243.29 45.28 243.6 45.71 243.87 46.11Z" fill="#FCD21E"/>
<path d="M272.41 55.5H268.68C268.68 52.69 268.68 49.9 268.68 47.09C268.68 46.63 268.53 46.26 268.22 45.96C264.82 42.6 261.4 39.23 258 35.84C257.94 35.78 257.91 35.75 257.85 35.69C257.7 35.84 257.54 35.97 257.39 36.12C255.62 37.89 253.84 39.64 252.07 41.41C250.51 42.97 248.92 44.53 247.36 46.09C247.18 46.27 247.05 46.52 247.05 46.82C247.05 49.73 247.05 52.6 247.05 55.51H243.29C242.98 55.51 242.71 55.75 242.71 56.09V59.45C242.71 59.76 242.95 60.03 243.29 60.03H272.41C272.72 60.03 272.99 59.79 272.99 59.45V56.09C272.99 55.77 272.72 55.5 272.41 55.5ZM254.79 46.72C255.8 46.72 257.82 46.72 257.82 46.72C257.82 46.72 259.87 46.72 260.88 46.72C260.88 46.84 260.88 50.39 260.88 50.48C260.88 52.16 260.88 53.84 260.88 55.5H254.76C254.79 52.47 254.79 48.74 254.79 46.72Z" fill="#FCD21E"/>
<path d="M176.06 46.84C176.15 46.29 175.78 45.77 175.2 45.68C174.65 45.59 174.13 45.96 174.04 46.54C173.95 47.09 174.32 47.61 174.9 47.7C175.41 47.76 175.96 47.39 176.06 46.84Z" fill="white"/>
<path d="M180.06 47.67C180.618 47.67 181.07 47.2178 181.07 46.66C181.07 46.1022 180.618 45.65 180.06 45.65C179.502 45.65 179.05 46.1022 179.05 46.66C179.05 47.2178 179.502 47.67 180.06 47.67Z" fill="white"/>
<path d="M176.18 40.91C175.42 40.88 175.02 41.06 175.02 41.28C175.45 41.13 175.88 40.97 176.34 40.91C176.27 40.94 176.24 40.91 176.18 40.91Z" fill="white"/>
<path d="M176.15 41.76C176.52 41.76 176.85 41.88 177.19 42.04C178.2 42.5 178.87 43.36 178.9 42.65C178.9 42.53 178.9 42.41 178.84 42.31C178.6 41.61 177.59 40.99 176.33 40.93C175.87 41.02 175.44 41.14 175.01 41.3C174.99 41.52 175.35 41.73 176.15 41.76Z" fill="white"/>
<path d="M177.55 51.09C176.2 51.09 175.07 50.6 174.52 49.93C174.64 50.97 175.96 51.8 177.55 51.8C179.14 51.8 180.46 50.97 180.58 49.93C180.03 50.6 178.9 51.09 177.55 51.09Z" fill="white"/>
<path d="M60.27 49.55L52.45 41.85H42.59L55.34 54.48L49.68 60.13L25.87 36.44H16L49.68 70L77.95 41.85H68.09L60.27 49.55Z" fill="#515151"/>
<path d="M32.96 32.71L49.68 24.29L66.4 32.71H61.11H44.39L37.29 36.44H73.5H83.36L49.68 19L16 36.44H25.87L32.96 32.71Z" fill="#515151"/>
<path d="M59.27 48.55L51.45 40.85H41.59L54.34 53.48L48.68 59.13L24.87 35.44H15L48.68 69L76.95 40.85H67.09L59.27 48.55Z" fill="white"/>
<path d="M31.96 31.71L48.68 23.29L65.4 31.71H60.11H43.39L36.29 35.44H72.5H82.36L48.68 18L15 35.44H24.87L31.96 31.71Z" fill="white"/>
</svg>
