<?xml version="1.0" encoding="UTF-8"?>
<svg id="_Слой_1" data-name="Слой 1" xmlns="http://www.w3.org/2000/svg" viewBox="0 0 56.1 42.5">
  <path d="m21.76,7.03c-.1.75-.25,1.45-.29,2.15-.05.87.39,1.28,1.27,1.28,4.34,0,8.68,0,13.01,0,.85,0,1.3-.42,1.26-1.26-.04-.7-.18-1.4-.28-2.16-.04.04-.02,0,0,0,1.37-.04,2.76-.21,4,.58,1.35.86,2.07,2.08,2.07,3.69,0,7.45,0,14.9,0,22.35,0,1.32,0,2.64,0,3.96-.01,2.48-1.84,4.32-4.31,4.32-6.16,0-12.31-.02-18.47.01-2.46.01-4.37-2.04-4.36-4.38.04-8.74.01-17.48.02-26.23,0-2.46,1.86-4.32,4.32-4.33.6,0,1.2,0,1.76,0Zm-3.97,18.56c0,3.83,0,7.65,0,11.48,0,1.62,1.16,2.78,2.77,2.78,5.82,0,11.64,0,17.46,0,1.49,0,2.68-1.17,2.68-2.66,0-7.76,0-15.52,0-23.27,0-.46-.12-.57-.57-.57-1.41,0-2.82,0-4.24,0-3.45,0-6.89,0-10.34,0-2.34,0-4.69-.02-7.03-.02-.63,0-.73.1-.73.72,0,3.85,0,7.7,0,11.56Z"/>
  <path d="m29.24,9.91h-6.42c-.68,0-.79-.11-.77-.81.01-.31.02-.62.07-.92.21-1.29.94-2.11,2.23-2.41.18-.04.36-.1.54-.16.57-.19.9-.54.91-1.18.02-1.23.51-2.24,1.56-2.93,2.13-1.41,5.03-.04,5.29,2.51.14,1.34.15,1.35,1.46,1.75,1.56.47,2.19,1.27,2.3,2.92q.08,1.24-1.18,1.24c-1.99,0-3.99,0-5.98,0Z"/>
  <path d="m29.59,35.42c-1.54,0-3.07,0-4.6,0-.36,0-.53-.12-.61-.48-.45-1.97-.97-3.92-1.33-5.9-.12-.69-.32-1.29-.69-1.86-.37-.55-.89-.75-1.54-.65-.16.02-.33.08-.48.03-.13-.04-.31-.18-.32-.28,0-.13.11-.37.22-.4.9-.25,2.01-.24,2.67.75.29.43.56.89.8,1.35.13.25.28.34.56.34,3.76,0,7.51,0,11.27,0,.67,0,.79.15.64.79-.45,1.94-.91,3.87-1.35,5.81-.09.38-.27.5-.64.49-1.54-.02-3.07,0-4.61,0Z"/>
  <path d="m29.24,20.53c-2.06,0-4.12,0-6.18,0-.49,0-.66-.15-.65-.51,0-.26.13-.4.38-.45.09-.02.19-.01.28-.01,4.12,0,8.24,0,12.36,0,.27,0,.56-.01.64.34.09.38-.1.62-.52.62-.92,0-1.83,0-2.75,0-1.18,0-2.37,0-3.55,0Z"/>
  <path d="m29.19,23.24h-6.02c-.53,0-.78-.14-.76-.45.01-.31.24-.44.78-.44,4.01,0,8.02,0,12.03,0,.19,0,.39,0,.55.07.13.07.28.27.27.39-.02.15-.18.3-.32.4-.08.06-.23.04-.35.04-2.06,0-4.12,0-6.18,0,0,0,0,0,0,0Z"/>
  <path d="m32.34,38.46c-.72-.01-1.28-.59-1.26-1.3.02-.69.6-1.26,1.28-1.26.7,0,1.29.6,1.29,1.3,0,.7-.6,1.27-1.31,1.26Z"/>
  <path d="m27.23,38.46c-.7,0-1.25-.57-1.25-1.27,0-.71.59-1.3,1.28-1.29.68.01,1.25.59,1.25,1.28,0,.71-.58,1.28-1.29,1.27Z"/>
</svg>